<?xml version="1.0" encoding="UTF-8" standalone="no"?>
<svg
   xmlns:dc="http://purl.org/dc/elements/1.1/"
   xmlns:cc="http://creativecommons.org/ns#"
   xmlns:rdf="http://www.w3.org/1999/02/22-rdf-syntax-ns#"
   xmlns:svg="http://www.w3.org/2000/svg"
   xmlns="http://www.w3.org/2000/svg"
   xmlns:sodipodi="http://sodipodi.sourceforge.net/DTD/sodipodi-0.dtd"
   xmlns:inkscape="http://www.inkscape.org/namespaces/inkscape"
   height="50px"
   version="1.1"
   viewBox="0 0 50 50"
   width="50px"
   id="svg3771"
   sodipodi:docname="reddit2.svg"
   inkscape:version="0.92.3 (5aff6ba, 2018-11-25)">
  <metadata
     id="metadata3775">
    <rdf:RDF>
      <cc:Work
         rdf:about="">
        <dc:format>image/svg+xml</dc:format>
        <dc:type
           rdf:resource="http://purl.org/dc/dcmitype/StillImage" />
        <dc:title></dc:title>
      </cc:Work>
    </rdf:RDF>
  </metadata>
  <sodipodi:namedview
     pagecolor="#ffffff"
     bordercolor="#666666"
     borderopacity="1"
     objecttolerance="10"
     gridtolerance="10"
     guidetolerance="10"
     inkscape:pageopacity="0"
     inkscape:pageshadow="2"
     inkscape:window-width="990"
     inkscape:window-height="747"
     id="namedview3773"
     showgrid="false"
     inkscape:snap-bbox="true"
     inkscape:snap-global="true"
     inkscape:bbox-paths="false"
     inkscape:bbox-nodes="false"
     inkscape:object-paths="true"
     inkscape:snap-bbox-edge-midpoints="true"
     inkscape:zoom="4"
     inkscape:cx="96.970361"
     inkscape:cy="8.4832308"
     inkscape:window-x="34"
     inkscape:window-y="21"
     inkscape:window-maximized="1"
     inkscape:current-layer="svg3771" />
  <defs
     id="defs3766" />
  <g
     id="Page-1"
     stroke-width="1"
     stroke="none"
     fill-rule="evenodd"
     fill="none"
     style="fill:#00e56b;fill-opacity:1">
    <g
       id="Reddit"
       fill="#000000"
       style="fill:#00e56b;fill-opacity:1">
      <path
         d="M50,25 C50,11.1928806 38.8071194,0 25,0 C11.1928806,0 0,11.1928806 0,25 C0,38.8071194 11.1928806,50 25,50 C38.8071194,50 50,38.8071194 50,25 Z M47,25 C47,12.8497349 37.1502651,3 25,3 C12.8497349,3 3,12.8497349 3,25 C3,37.1502651 12.8497349,47 25,47 C37.1502651,47 47,37.1502651 47,25 Z M29.285672,25.1142857 C28.1613122,25.1142857 27.25,26.0886553 27.25,27.2907328 C27.25,28.4931237 28.1613122,29.4676812 29.285672,29.4676812 C30.4097389,29.4676812 31.3211097,28.4931237 31.3211097,27.2907328 C31.3211097,26.0886553 30.4097389,25.1142857 29.285672,25.1142857 L29.285672,25.1142857 Z M40,25.1842541 C40,23.1661499 38.4647792,21.5245722 36.5778773,21.5245722 C35.7246903,21.5245722 34.9441013,21.8609333 34.344099,22.4154154 C32.0204962,20.8025988 29.01275,19.8611259 25.7938312,19.7275339 L27.4944043,13.7975395 L32.4418455,14.9819468 C32.4417283,14.9962334 32.4399119,15.0100187 32.4399119,15.0243053 C32.4399119,16.6918871 33.7087059,18.0486732 35.2680089,18.0486732 C36.8273118,18.0486732 38.0961058,16.6919498 38.0961058,15.0243053 C38.0961058,13.3566608 36.827429,12 35.2680089,12 C34.0961293,12 33.0888402,12.7662743 32.6602252,13.8548112 L27.2437392,12.5581164 C26.969285,12.4923856 26.6939519,12.6634486 26.6115688,12.9510599 L24.6717565,19.7148765 C21.2781691,19.773088 18.0911839,20.7250878 15.6557838,22.4155407 C15.0558987,21.8611213 14.2751339,21.5246975 13.4220056,21.5246975 C11.5351037,21.5246975 10,23.1663379 10,25.1843795 C10,26.5078929 10.6604127,27.6694291 11.6472525,28.3122624 C11.5968617,28.6558922 11.5703186,29.0034695 11.5703186,29.3544932 C11.5703186,31.9771452 12.997375,34.4258518 15.5885179,36.2485809 C18.110227,38.0226854 21.4524861,39 24.9999414,39 C28.5471037,39 31.8895972,38.0224974 34.4113063,36.2485809 C37.0025078,34.4256639 38.429447,31.9771452 38.429447,29.3544932 C38.429447,29.0034695 38.4030211,28.6560801 38.3525131,28.3122624 C39.3394701,27.6693665 40,26.5077049 40,25.1842541 L40,25.1842541 Z M35.2678917,13.1509466 C36.2337548,13.1509466 37.0196173,13.9912229 37.0196173,15.0242426 C37.0196173,16.0570117 36.2337548,16.8975386 35.2678917,16.8975386 C34.3021457,16.8975386 33.5161661,16.0570117 33.5161661,15.0242426 C33.5161075,13.9912856 34.3019699,13.1509466 35.2678917,13.1509466 L35.2678917,13.1509466 Z M11.076137,25.1842541 C11.076137,23.8009626 12.1284263,22.6755815 13.4218884,22.6755815 C13.9116754,22.6755815 14.3665405,22.8374333 14.7430654,23.1128259 C13.3654038,24.2769312 12.4090914,25.6430537 11.9283278,27.1170775 C11.4083063,26.6566487 11.076137,25.9612434 11.076137,25.1842541 L11.076137,25.1842541 Z M24.9999414,37.8488654 C18.1882742,37.8488654 12.6466314,34.0382971 12.6466314,29.3543679 C12.6466314,29.15304 12.6575885,28.9535918 12.6776862,28.7556476 C12.7167684,28.3727297 12.7922961,27.9965165 12.9030387,27.6288878 C13.3168294,26.2557474 14.2139618,25.0028522 15.4665839,23.9584283 C15.7443779,23.7265221 16.0403361,23.5054561 16.3517045,23.295293 C18.5818499,21.7901897 21.6355923,20.8602464 24.9999414,20.8602464 C28.3641147,20.8602464 31.4179743,21.790315 33.6479439,23.295293 C33.9593123,23.5054561 34.2553877,23.7265847 34.5331232,23.9584283 C35.7858039,25.0027895 36.6829949,26.2557474 37.0967269,27.6288878 C37.2075282,27.9965165 37.2830558,28.3727297 37.3220794,28.7556476 C37.3423529,28.9534039 37.3530756,29.15304 37.3530756,29.3543679 C37.3530756,34.0383598 31.8114915,37.8488654 24.9999414,37.8488654 L24.9999414,37.8488654 Z M38.071555,27.1172028 C37.5909086,25.6432417 36.6344204,24.2769312 35.2567588,23.1128886 C35.6332837,22.837496 36.0880902,22.6756441 36.5778773,22.6756441 C37.8713979,22.6756441 38.9236872,23.8009626 38.9236872,25.1843168 C38.9236872,25.9612434 38.5916937,26.6566487 38.071555,27.1172028 L38.071555,27.1172028 Z M29.1000551,33.0352917 C28.0801683,33.929456 26.815593,34.3281642 24.9999414,34.3281642 C23.1841726,34.3281642 21.9196559,33.929456 20.8995934,33.0352917 C20.6583619,32.8238128 20.3022277,32.8616597 20.1045317,33.1195073 C19.9066598,33.3776056 19.9419334,33.7583304 20.183282,33.9699346 C21.4026227,35.0389841 22.9330974,35.5366958 24.9999414,35.5366958 C27.0667854,35.5366958 28.5972016,35.0389841 29.8166008,33.9699346 C30.0578323,33.7583304 30.093223,33.3776056 29.8953512,33.1195073 C29.6971863,32.8611584 29.3412865,32.8238128 29.1000551,33.0352917 L29.1000551,33.0352917 Z M22.3208167,27.2907328 C22.3208167,26.0886553 21.4096217,25.1142857 20.2855548,25.1142857 C19.1613122,25.1142857 18.25,26.0886553 18.25,27.2907328 C18.25,28.4931237 19.1613707,29.4676812 20.2855548,29.4676812 C21.4096217,29.4675559 22.3208167,28.4931237 22.3208167,27.2907328 L22.3208167,27.2907328 Z M22.3208167,27.2907328"
         id="Oval-1"
         style="fill:#00e56b;fill-opacity:1" />
    </g>
  </g>
  <path
     style="opacity:1;fill:#000000;stroke:#000000;stroke-width:0.02245989;stroke-miterlimit:4;stroke-dasharray:none;stroke-opacity:1"
     d="M 22.991571,38.864894 C 19.490996,38.440331 16.380351,37.10181 14.320236,35.133588 12.508263,33.40244 11.666744,31.595573 11.6388,29.37615 l -0.01347,-1.069519 -0.471683,-0.468739 c -0.287724,-0.285928 -0.582675,-0.703045 -0.756275,-1.069518 -0.266633,-0.562865 -0.284593,-0.662944 -0.284593,-1.585794 0,-0.959636 0.0087,-1.002543 0.336216,-1.665302 0.928783,-1.879266 3.091752,-2.502247 4.768967,-1.373566 l 0.444547,0.299159 0.656507,-0.402343 c 2.135234,-1.308583 5.330924,-2.237794 7.716923,-2.24385 l 0.643302,-0.0016 0.221531,-0.735294 c 0.121841,-0.404412 0.568421,-1.958556 0.992399,-3.453654 0.477878,-1.685166 0.834106,-2.784131 0.937246,-2.891403 0.164391,-0.170979 0.19908,-0.165256 2.909751,0.480131 1.508858,0.359245 2.783484,0.668109 2.832504,0.686365 0.04902,0.01826 0.185315,-0.148377 0.30288,-0.370294 0.248541,-0.469151 0.73221,-0.931677 1.2751,-1.219361 0.542958,-0.28772 1.636371,-0.290934 2.213477,-0.0065 0.551726,0.271918 1.106809,0.843189 1.400628,1.441473 0.212944,0.433604 0.244205,0.602043 0.24131,1.300272 -0.0039,0.951652 -0.175542,1.411763 -0.765012,2.051262 -0.58425,0.633837 -1.135858,0.884934 -1.950023,0.887669 -0.833591,0.0028 -1.509021,-0.295691 -2.043769,-0.903196 -0.386637,-0.439243 -0.718342,-1.203591 -0.720519,-1.660291 -7.13e-4,-0.157475 -0.03083,-0.32985 -0.06685,-0.383057 -0.03601,-0.05321 -1.128314,-0.349491 -2.427334,-0.658412 -1.29902,-0.30892 -2.40519,-0.577898 -2.458155,-0.59773 -0.07573,-0.02835 -0.948299,2.823073 -1.793974,5.862419 -0.03355,0.120596 0.09417,0.151658 0.836209,0.203361 2.402552,0.167403 5.182333,1.045229 7.150544,2.258068 l 0.570631,0.35163 0.441297,-0.296972 c 1.673888,-1.126444 3.837793,-0.501774 4.765717,1.375753 0.327553,0.662759 0.336216,0.705666 0.336216,1.665302 0,0.925049 -0.01751,1.021991 -0.287692,1.592416 -0.185756,0.392186 -0.463629,0.779171 -0.784239,1.092187 l -0.496548,0.484785 0.05901,0.521605 c 0.08014,0.708372 -0.09574,1.951062 -0.403151,2.848364 -0.39427,1.150853 -0.987696,2.059544 -2.053515,3.144469 -1.989287,2.024948 -4.630896,3.300131 -8.02139,3.872163 -0.999527,0.168637 -3.930354,0.244165 -4.901961,0.126325 z m 3.813673,-1.071432 c 4.682124,-0.510019 8.462398,-2.698144 9.922677,-5.743515 0.463124,-0.965834 0.633137,-1.694143 0.633885,-2.71546 7.13e-4,-1.018798 -0.170321,-1.740406 -0.645108,-2.72126 -0.800097,-1.652905 -2.351961,-3.101558 -4.437708,-4.142567 -2.452268,-1.223941 -5.264053,-1.755986 -8.411888,-1.591692 -2.695256,0.140673 -5.456727,1.011383 -7.498153,2.364218 -0.860779,0.57043 -2.116357,1.792861 -2.620723,2.551535 -1.317888,1.982388 -1.476379,4.304903 -0.4349,6.373005 1.925633,3.823795 7.747737,6.251443 13.491918,5.625736 z M 12.029004,26.978793 c 0,-0.06855 0.178387,-0.479643 0.396415,-0.913548 0.439778,-0.875214 1.359948,-2.080064 1.970988,-2.580764 0.468681,-0.384049 0.434354,-0.483576 -0.244558,-0.709074 -1.922231,-0.638463 -3.680858,1.379906 -2.928215,3.3607 0.235609,0.620072 0.80537,1.216232 0.80537,0.842686 z m 26.412822,-0.212824 c 0.748613,-1.08025 0.645722,-2.544585 -0.241108,-3.431415 -0.740483,-0.740483 -1.961054,-0.89617 -2.791664,-0.356083 -0.190537,0.123893 -0.183383,0.136504 0.40944,0.721781 0.331851,0.327626 0.79544,0.856379 1.030195,1.175007 0.421407,0.571961 1.116144,1.88659 1.116144,2.112041 0,0.225946 0.246197,0.111707 0.476993,-0.221331 z m -2.54754,-9.960918 c 1.178438,-0.492382 1.529021,-2.06518 0.681138,-3.055741 -1.097101,-1.281715 -3.066919,-0.474281 -3.066919,1.257139 0,1.351162 1.232628,2.28042 2.385781,1.798602 z"
     id="path4663"
     inkscape:connector-curvature="0" />
  <path
     style="opacity:1;fill:#000000;stroke:#000000;stroke-width:0.00098438;stroke-miterlimit:4;stroke-dasharray:none;stroke-opacity:1"
     d="m 15.542991,22.347645 -0.118164,-0.07998 v -0.02126 c 0,-0.01169 10e-4,-0.02126 0.0023,-0.02126 0.0042,0 0.104188,0.08258 0.166997,0.137906 l 0.06187,0.0545 0.02993,-0.0207 c 0.890549,-0.615971 1.93313,-1.157914 3.018208,-1.568891 0.600184,-0.227322 1.170211,-0.406024 1.823242,-0.571582 L 20.678733,20.218 v 0.01871 0.01871 l -0.04981,0.01242 c -0.09094,0.02267 -0.282305,0.07443 -0.428711,0.11595 -1.307618,0.370852 -2.550676,0.878688 -3.568359,1.45781 -0.141246,0.08038 -0.253155,0.147626 -0.634261,0.381139 -0.184488,0.11304 -0.33566,0.205384 -0.335937,0.205208 -2.78e-4,-1.76e-4 -0.05368,-0.03631 -0.118669,-0.0803 z"
     id="path4665"
     inkscape:connector-curvature="0" />
  <path
     style="opacity:1;fill:#000000;stroke:#000000;stroke-width:0.00098438;stroke-miterlimit:4;stroke-dasharray:none;stroke-opacity:1"
     d="m 15.424827,22.949521 c 0,-0.523206 0.0011,-0.677309 0.0046,-0.675091 0.0026,0.0016 0.05515,0.03684 0.116875,0.07836 0.06173,0.04152 0.114298,0.07548 0.116831,0.07548 0.0025,0 0.160436,-0.09548 0.350898,-0.212173 0.190462,-0.116695 0.35728,-0.218775 0.370708,-0.226845 0.01343,-0.0081 0.02441,-0.01557 0.02441,-0.01666 0,-0.0011 -0.0057,0.0015 -0.0127,0.0057 -0.117014,0.07098 -0.307988,0.187393 -0.49121,0.299442 -0.125684,0.07686 -0.232519,0.141599 -0.237411,0.14386 -0.0064,0.003 -0.01016,0.0028 -0.01348,-4.71e-4 -0.0035,-0.0035 -0.0034,-0.0046 4.05e-4,-0.0046 0.0027,0 0.03078,-0.01785 0.0623,-0.03965 0.135077,-0.09345 0.343037,-0.228775 0.512364,-0.333402 1.198576,-0.740601 2.554782,-1.318537 4.019564,-1.712904 0.12085,-0.03254 0.419886,-0.109352 0.4257,-0.109352 0.0022,0 0.004,0.0076 0.004,0.01681 v 0.01681 l -0.03809,0.0091 c -0.09457,0.0227 -0.400403,0.105989 -0.398005,0.108386 8.17e-4,8.18e-4 0.05928,-0.01428 0.129921,-0.03356 0.145263,-0.03964 0.294585,-0.07853 0.301527,-0.07853 0.0036,0 0.0046,0.130562 0.0046,0.562237 0,0.532071 -3.67e-4,0.562347 -0.0068,0.564305 -0.0038,0.0011 -0.05693,0.01542 -0.118164,0.03174 -0.894236,0.238352 -1.780398,0.561119 -2.595703,0.945434 -0.114582,0.05401 -0.436074,0.21473 -0.542969,0.27144 -0.457147,0.242522 -0.92384,0.52624 -1.232422,0.749228 -0.07266,0.05251 -0.196383,0.146076 -0.264844,0.200297 l -0.05351,0.04238 -0.219727,6e-5 -0.219726,6e-5 z m 1.046875,-1.012277 c 0.400976,-0.237145 0.890744,-0.487669 1.371094,-0.701337 0.550325,-0.244794 1.100866,-0.454593 1.727374,-0.658264 0.06383,-0.02075 0.115391,-0.03838 0.11459,-0.03918 -0.004,-0.004 -0.437082,0.140571 -0.662277,0.221068 -0.920176,0.328922 -1.802354,0.733735 -2.525391,1.15885 -0.04297,0.02526 -0.07988,0.04775 -0.08203,0.04997 -0.0053,0.0055 -0.0043,0.0049 0.05664,-0.0311 z m 3.252169,-1.409076 c 0.01492,-0.0052 0.02527,-0.0096 0.02301,-0.0098 -0.0023,-1.6e-4 -0.01633,0.004 -0.03125,0.0092 -0.01492,0.0052 -0.02527,0.0096 -0.02301,0.0098 0.0023,1.6e-4 0.01633,-0.004 0.03125,-0.0092 z m 0.162741,-0.04944 c 0.06599,-0.02002 0.119309,-0.03707 0.118478,-0.0379 -0.0017,-0.0017 -0.214034,0.06185 -0.238466,0.07137 -0.02724,0.0106 -0.0032,0.0039 0.119988,-0.03346 z m 0.244491,-0.07233 c 0.05867,-0.01689 0.105177,-0.03121 0.103355,-0.03182 -0.004,-0.0013 -0.220608,0.06091 -0.223573,0.06424 -0.0027,0.003 -0.0048,0.0036 0.120218,-0.03242 z"
     id="path4667"
     inkscape:connector-curvature="0" />
  <path
     style="opacity:1;fill:#000000;stroke:#000000;stroke-width:0.00098438;stroke-miterlimit:4;stroke-dasharray:none;stroke-opacity:1"
     d="m 15.424827,22.926314 c 0,-0.385644 0.0014,-0.701171 0.0032,-0.701171 0.0045,0 0.09221,0.07213 0.163817,0.134693 0.03324,0.02904 0.06244,0.05277 0.06489,0.05273 0.0024,-4e-5 0.04927,-0.03065 0.104054,-0.06803 0.874803,-0.596803 1.911694,-1.129388 2.984375,-1.532883 0.577105,-0.217082 1.14483,-0.394393 1.771485,-0.553269 0.08164,-0.0207 0.151513,-0.03852 0.155273,-0.03961 0.0065,-0.0019 0.0068,0.02777 0.0068,0.583723 v 0.585699 l -0.04785,0.01259 c -0.908997,0.23921 -1.794198,0.557066 -2.612304,0.938021 -0.122312,0.05695 -0.510022,0.250048 -0.626953,0.312244 -0.384834,0.204694 -0.816377,0.463969 -1.107033,0.665118 -0.09073,0.06279 -0.278218,0.201955 -0.363282,0.26965 l -0.05235,0.04166 H 15.64688 15.424812 Z"
     id="path4669"
     inkscape:connector-curvature="0" />
  <path
     style="opacity:1;fill:#000000;stroke:#000000;stroke-width:0.00098438;stroke-miterlimit:4;stroke-dasharray:none;stroke-opacity:1"
     d="m 15.424827,22.923898 v -0.703589 l 0.01465,0.01094 c 0.02611,0.0195 0.07567,0.06063 0.146677,0.121764 0.04273,0.03678 0.07134,0.05877 0.07422,0.05705 0.0026,-0.0015 0.06534,-0.04356 0.139456,-0.09337 1.317037,-0.885109 2.825149,-1.556723 4.498047,-2.003135 0.08867,-0.02366 0.373388,-0.09623 0.377556,-0.09623 0.0018,0 0.0033,0.265156 0.0033,0.589234 v 0.589235 l -0.100586,0.02658 c -1.566081,0.413827 -3.004808,1.050253 -4.212546,1.863434 -0.161365,0.108648 -0.263068,0.180514 -0.454765,0.321351 l -0.02766,0.02032 H 15.654 15.424827 Z"
     id="path4671"
     inkscape:connector-curvature="0" />
  <path
     style="opacity:1;fill:#000000;stroke:#000000;stroke-width:0.00098438;stroke-miterlimit:4;stroke-dasharray:none;stroke-opacity:1"
     d="m 15.424827,22.924361 c 0,-0.386718 8.41e-4,-0.703125 0.0019,-0.703125 0.0031,0 0.09408,0.0742 0.150474,0.122707 0.029,0.02495 0.05941,0.05003 0.06757,0.05574 l 0.01483,0.01038 0.110165,-0.07431 c 0.650299,-0.438667 1.329986,-0.816881 2.071102,-1.152469 0.750412,-0.339797 1.569479,-0.631333 2.41211,-0.858556 0.113895,-0.03071 0.414615,-0.107389 0.421175,-0.107389 0.0035,0 0.0046,0.139425 0.0046,0.589735 v 0.589734 l -0.02051,0.0058 c -0.01128,0.0032 -0.07324,0.01984 -0.137695,0.03702 -0.745995,0.198842 -1.509771,0.467437 -2.196546,0.772454 -0.868127,0.385562 -1.648061,0.834546 -2.365103,1.361517 l -0.07337,0.05392 H 15.65517 15.424827 Z"
     id="path4673"
     inkscape:connector-curvature="0" />
  <path
     style="opacity:1;fill:#000000;stroke:#000000;stroke-width:0.00098438;stroke-miterlimit:4;stroke-dasharray:none;stroke-opacity:1"
     d="m 13.997033,23.803281 c 0.130466,-0.137231 0.393769,-0.385492 0.602318,-0.567905 l 0.09248,-0.08089 0.0045,-0.02172 c 0.0025,-0.01195 0.0033,-0.02885 0.0018,-0.03757 -0.0026,-0.01519 -0.0047,-0.01718 -0.05207,-0.04813 -0.145538,-0.09512 -0.313424,-0.180035 -0.463441,-0.234415 -0.185235,-0.06715 -0.359164,-0.106532 -0.564468,-0.127826 -0.0773,-0.008 -0.329574,-0.0068 -0.410156,0.002 -0.07235,0.0079 -0.1454,0.01865 -0.204459,0.03012 -0.02182,0.0042 -0.04188,0.0077 -0.04456,0.0077 -0.0039,9e-6 -0.0049,-0.119383 -0.0049,-0.583973 0,-0.321191 0.0013,-0.583986 0.0029,-0.583989 0.0016,-2e-6 0.0293,-0.0034 0.06152,-0.0075 0.146864,-0.01879 0.198849,-0.02164 0.396484,-0.02172 0.187165,-7.3e-5 0.239227,0.0022 0.361328,0.01583 0.515808,0.05754 1.006837,0.238006 1.449219,0.532632 0.126422,0.0842 0.223945,0.158507 0.375,0.285742 0.02578,0.02172 0.04966,0.04099 0.05306,0.04282 0.0046,0.0025 0.04006,-0.01927 0.138672,-0.08506 0.370432,-0.247169 0.69228,-0.442932 1.056315,-0.642499 0.409704,-0.224603 0.91091,-0.467077 1.317382,-0.637325 l 0.04199,-0.01759 v 0.622381 0.622381 l -0.01529,0.0061 c -0.07816,0.03127 -0.531862,0.254146 -0.713222,0.350357 -0.370905,0.196764 -0.738113,0.415075 -1.066406,0.633998 -0.274428,0.183001 -0.576546,0.402392 -0.776447,0.563837 l -0.04988,0.04029 H 14.764201 13.9417 Z"
     id="path4675"
     inkscape:connector-curvature="0" />
  <path
     style="opacity:1;fill:#000000;stroke:#000000;stroke-width:0.00098438;stroke-miterlimit:4;stroke-dasharray:none;stroke-opacity:1"
     d="m 13.980611,23.819404 c 0.116593,-0.125318 0.397702,-0.390906 0.623394,-0.588973 0.09496,-0.08334 0.09231,-0.07982 0.09231,-0.122748 0,-0.02667 -10e-4,-0.02784 -0.05664,-0.06355 -0.290142,-0.186339 -0.585085,-0.297676 -0.912929,-0.344617 -0.118317,-0.01694 -0.154417,-0.01876 -0.3333,-0.0168 -0.179616,0.002 -0.216905,0.005 -0.352075,0.02863 -0.03187,0.0056 -0.06454,0.01108 -0.07259,0.01225 l -0.01465,0.0021 v -0.584322 -0.584321 l 0.0127,-0.0021 c 0.02252,-0.0038 0.140215,-0.01737 0.188476,-0.02175 0.07384,-0.0067 0.351454,-0.0093 0.448192,-0.0043 0.427574,0.02246 0.851649,0.134462 1.245168,0.328853 0.248777,0.122892 0.47108,0.269316 0.710002,0.467658 0.0696,0.05778 0.09657,0.078 0.101562,0.07616 0.01081,-0.004 0.05646,-0.03321 0.192342,-0.123081 0.450148,-0.297722 0.870325,-0.543769 1.334186,-0.781271 0.338133,-0.173129 0.716053,-0.349549 1.0164,-0.474475 0.0039,-0.0016 0.0049,0.124172 0.0049,0.621381 v 0.623412 l -0.01456,0.0061 c -0.08715,0.03641 -0.590428,0.284383 -0.741299,0.365244 -0.496763,0.266247 -0.931822,0.535633 -1.371093,0.848975 -0.117993,0.08417 -0.327316,0.241096 -0.416596,0.312321 l -0.07675,0.06123 H 14.76464 13.941543 Z"
     id="path4677"
     inkscape:connector-curvature="0" />
  <path
     style="opacity:1;fill:#000000;stroke:#000000;stroke-width:0.00098438;stroke-miterlimit:4;stroke-dasharray:none;stroke-opacity:1"
     d="m 13.957279,23.842842 c 0.0241,-0.02868 0.262803,-0.263689 0.352322,-0.346873 0.108706,-0.101012 0.197732,-0.181767 0.291534,-0.264446 0.04325,-0.03812 0.08171,-0.074 0.08546,-0.07972 0.0038,-0.0058 0.0077,-0.02128 0.0088,-0.0351 0.002,-0.02452 0.0019,-0.0248 -0.0132,-0.03969 -0.03713,-0.03668 -0.2487,-0.156277 -0.370647,-0.209524 -0.238334,-0.104067 -0.499876,-0.168539 -0.740234,-0.182473 -0.05648,-0.0033 -0.115056,-0.0033 -0.226563,-4.5e-5 -0.154566,0.0045 -0.182671,0.0071 -0.305367,0.02795 -0.03797,0.0065 -0.07269,0.01175 -0.07716,0.01175 h -0.0081 l 9.89e-4,-0.58496 9.9e-4,-0.584961 0.07031,-0.0085 c 0.13182,-0.01597 0.160225,-0.01761 0.341797,-0.01966 0.230685,-0.0026 0.336567,0.0033 0.510658,0.02832 0.515129,0.07415 1.004077,0.272422 1.440514,0.584149 0.08225,0.05875 0.127667,0.09379 0.225079,0.173681 0.03919,0.03214 0.08087,0.06535 0.09262,0.07381 l 0.02137,0.01537 0.01601,-0.0091 c 0.0088,-0.005 0.0749,-0.04782 0.146874,-0.09509 0.32421,-0.212941 0.536435,-0.344292 0.801868,-0.496295 0.362569,-0.207628 0.764373,-0.413204 1.187938,-0.607788 0.126162,-0.05796 0.388041,-0.172045 0.394919,-0.172045 0.0011,0 0.002,0.280811 0.0019,0.624024 l -9e-5,0.624023 -0.03604,0.01539 c -0.0935,0.03992 -0.571851,0.276392 -0.728986,0.360377 -0.496618,0.265432 -0.982571,0.568536 -1.416432,0.883474 -0.114385,0.08303 -0.282567,0.209965 -0.36489,0.275395 l -0.07192,0.05716 h -0.82395 -0.823951 z"
     id="path4679"
     inkscape:connector-curvature="0" />
  <path
     style="opacity:1;fill:#000000;stroke:#000000;stroke-width:0.00139212;stroke-miterlimit:4;stroke-dasharray:none;stroke-opacity:1"
     d="m 10.056248,25.854472 c -0.0047,-0.01335 -0.0304,-0.201144 -0.0384,-0.280357 -0.027017,-0.267693 -0.023869,-0.59353 0.0083,-0.856262 0.126347,-1.03277 0.648766,-1.948097 1.45263,-2.545144 0.2863,-0.21264 0.618473,-0.384364 0.953791,-0.493082 0.111393,-0.03612 0.285031,-0.0806 0.388607,-0.09956 0.03494,-0.0064 0.08963,-0.01639 0.121534,-0.0222 0.142693,-0.02601 0.205464,-0.03004 0.469563,-0.03017 0.263341,-1.23e-4 0.307115,0.0024 0.47785,0.02764 0.09132,0.0135 0.225183,0.03951 0.292786,0.05691 l 0.03867,0.0099 0.0014,0.605375 0.0014,0.605375 -0.05112,-0.01909 c -0.122198,-0.04562 -0.291031,-0.08798 -0.440585,-0.110553 -0.187602,-0.02831 -0.479052,-0.02339 -0.696058,0.01176 -0.388736,0.06297 -0.757791,0.2388 -1.080739,0.514912 -0.133332,0.113996 -0.289187,0.283931 -0.392838,0.428329 -0.199548,0.277994 -0.352299,0.622252 -0.423554,0.954574 -0.08204,0.382636 -0.08119,0.781103 0.0025,1.151811 0.0089,0.0395 0.01779,0.07741 0.01972,0.08424 l 0.0035,0.01243 h -0.553244 c -0.437622,0 -0.553751,-0.0014 -0.555667,-0.0069 z"
     id="path4681"
     inkscape:connector-curvature="0" />
  <path
     style="opacity:1;fill:#000000;stroke:#000000;stroke-width:0.00139212;stroke-miterlimit:4;stroke-dasharray:none;stroke-opacity:1"
     d="m 10.056583,25.856385 c -0.0046,-0.0075 -0.02875,-0.179514 -0.03843,-0.273983 -0.021256,-0.207426 -0.025022,-0.507819 -0.0089,-0.707107 0.06181,-0.762285 0.346203,-1.488313 0.809379,-2.066236 0.430144,-0.536708 0.988061,-0.926611 1.618658,-1.131206 0.224753,-0.07292 0.522873,-0.133941 0.719851,-0.147343 0.105525,-0.0072 0.423394,-0.0071 0.525762,6e-5 0.135688,0.0095 0.32308,0.03911 0.47923,0.07561 l 0.06215,0.01453 v 0.607273 c 0,0.576142 -4.95e-4,0.607076 -0.0097,0.603417 -0.146158,-0.0583 -0.367222,-0.113838 -0.526187,-0.132192 -0.215303,-0.02486 -0.501449,-0.0128 -0.719883,0.03034 -0.483116,0.09542 -0.93133,0.36534 -1.276511,0.768738 -0.213108,0.24905 -0.370758,0.530618 -0.478692,0.85496 -0.06009,0.180563 -0.09611,0.347144 -0.119667,0.553329 -0.01499,0.131188 -0.01362,0.448341 0.0025,0.579147 0.01317,0.106932 0.03321,0.22131 0.05403,0.30842 0.0075,0.03139 0.01364,0.05935 0.01364,0.06215 0,0.0067 -1.103121,0.0068 -1.107288,9.1e-5 z"
     id="path4683"
     inkscape:connector-curvature="0" />
  <path
     style="opacity:1;fill:#000000;stroke:#000000;stroke-width:0.00139212;stroke-miterlimit:4;stroke-dasharray:none;stroke-opacity:1"
     d="M 11.259531,28.019987 C 11.087327,27.871346 10.905322,27.675411 10.757925,27.479989 10.33846,26.923853 10.080296,26.25178 10.012028,25.538208 9.999782,25.41021 9.995016,25.092777 10.003228,24.952635 c 0.04083,-0.696175 0.273546,-1.379378 0.659983,-1.937585 l 0.0449,-0.06486 0.828553,-5.3e-5 0.828552,-5.3e-5 -0.05515,0.03189 c -0.37404,0.216264 -0.70134,0.556729 -0.913483,0.950225 -0.12988,0.240911 -0.228105,0.522036 -0.27354,0.78289 -0.03123,0.179304 -0.03376,0.214859 -0.03362,0.472325 1.61e-4,0.295751 0.0042,0.332664 0.07174,0.651864 0.01819,0.08599 0.079,0.270092 0.123651,0.374369 0.06502,0.151824 0.130208,0.273229 0.220191,0.41006 0.154858,0.235483 0.340715,0.435498 0.418511,0.450394 l 0.01651,0.0032 0.03791,-0.109378 c 0.209366,-0.604088 0.518569,-1.220467 0.897765,-1.789644 0.288979,-0.43376 0.587433,-0.807295 0.994459,-1.244629 0.101147,-0.108679 0.330766,-0.341158 0.344487,-0.348779 0.0092,-0.0051 0.0097,0.03499 0.0095,0.808274 l -1.32e-4,0.813643 -0.05562,0.06905 c -0.07174,0.08906 -0.231771,0.302168 -0.298683,0.397747 -0.306519,0.43784 -0.556452,0.889817 -0.752797,1.361351 -0.117185,0.281428 -0.227205,0.617403 -0.296279,0.90476 -0.01555,0.06469 -0.02918,0.12072 -0.03029,0.124518 -0.0016,0.0055 -0.153746,0.0069 -0.736834,0.0069 h -0.734811 z"
     id="path4685"
     inkscape:connector-curvature="0" />
  <path
     style="opacity:1;fill:#000000;stroke:#000000;stroke-width:0.00139212;stroke-miterlimit:4;stroke-dasharray:none;stroke-opacity:1"
     d="m 11.257783,28.020092 c -0.177404,-0.155049 -0.36114,-0.354341 -0.510678,-0.553914 -0.414629,-0.553362 -0.67318,-1.234503 -0.738121,-1.944543 -0.00949,-0.103748 -0.013118,-0.482108 -0.0057,-0.593859 0.04476,-0.674037 0.264719,-1.325319 0.633066,-1.874501 0.02889,-0.04308 0.05688,-0.08393 0.06219,-0.09078 l 0.0097,-0.01245 0.827578,0.0014 0.827578,0.0014 -0.03764,0.02153 c -0.279676,0.159957 -0.536106,0.389677 -0.737541,0.660717 -0.251179,0.337973 -0.411364,0.731638 -0.480548,1.180976 -0.01019,0.06616 -0.01198,0.107043 -0.01409,0.321626 -0.0027,0.271289 7.41e-4,0.334259 0.02621,0.483374 0.04488,0.262759 0.104896,0.461462 0.204135,0.675844 0.114961,0.24835 0.283795,0.495606 0.455424,0.666965 0.06242,0.06232 0.0852,0.08134 0.114773,0.09586 0.02029,0.01 0.03937,0.01659 0.04238,0.01472 0.003,-0.0019 0.01098,-0.02014 0.01769,-0.04062 0.146738,-0.447477 0.399961,-0.997327 0.671228,-1.457511 0.382873,-0.649515 0.848437,-1.24644 1.43541,-1.840419 0.08482,-0.08583 0.156317,-0.156061 0.158879,-0.156061 0.0026,0 0.0047,0.3663 0.0047,0.813999 v 0.813999 l -0.0589,0.07403 c -0.455443,0.572393 -0.806228,1.164136 -1.06398,1.794838 -0.10454,0.255803 -0.197919,0.542343 -0.271628,0.833508 l -0.04002,0.158099 -0.736998,0.0012 -0.736998,0.0012 z"
     id="path4687"
     inkscape:connector-curvature="0" />
  <path
     style="opacity:1;fill:#000000;stroke:#000000;stroke-width:0.00098438;stroke-miterlimit:4;stroke-dasharray:none;stroke-opacity:1"
     d="m 11.569477,29.303527 c 3.1e-5,-0.196579 0.01617,-0.481967 0.03925,-0.693995 0.0079,-0.07252 0.0096,-0.15558 0.0051,-0.249844 l -0.0026,-0.05347 -0.03988,-0.03601 c -0.02193,-0.01981 -0.0611,-0.05144 -0.08704,-0.07029 -0.02594,-0.01885 -0.07366,-0.05533 -0.106042,-0.08105 -0.03238,-0.02573 -0.05993,-0.04677 -0.06123,-0.04677 -0.0074,0 -0.138776,-0.121354 -0.226102,-0.208809 -0.221931,-0.222254 -0.396021,-0.444837 -0.553377,-0.707518 -0.236085,-0.394106 -0.402504,-0.839628 -0.483585,-1.29461 -0.0067,-0.0376 -0.01312,-0.07319 -0.01427,-0.0791 l -0.0021,-0.01074 h 0.556225 0.556225 l 0.01093,0.04785 c 0.100457,0.439835 0.351973,0.891316 0.657258,1.179803 0.03939,0.03722 0.07271,0.06058 0.09861,0.06913 0.02164,0.0071 0.02238,0.0061 0.04366,-0.05808 0.114137,-0.344645 0.302748,-0.773762 0.510539,-1.16155 l 0.04134,-0.07715 h 0.591043 0.591044 v 0.08459 0.08459 l -0.0463,0.07459 c -0.136889,0.220502 -0.232238,0.391356 -0.340282,0.609744 -0.220101,0.444884 -0.367601,0.847901 -0.488224,1.333984 -0.01306,0.05264 -0.0255,0.09978 -0.02763,0.10476 -0.01175,0.0274 -0.06728,0.33239 -0.08761,0.481178 -0.03472,0.254084 -0.05676,0.557509 -0.0568,0.782226 l -1.5e-5,0.06543 h -0.539062 -0.539063 l 1.6e-5,-0.08887 z"
     id="path4689"
     inkscape:connector-curvature="0" />
  <path
     style="opacity:1;fill:#000000;stroke:#000000;stroke-width:0.00098438;stroke-miterlimit:4;stroke-dasharray:none;stroke-opacity:1"
     d="m 11.569471,29.287902 c 1.6e-5,-0.191065 0.01398,-0.442054 0.03602,-0.647461 0.0069,-0.06429 0.0083,-0.09976 0.0079,-0.200294 -2.68e-4,-0.06719 -0.0016,-0.1252 -0.003,-0.128906 -0.006,-0.01628 -0.08024,-0.07681 -0.27533,-0.224428 -0.124734,-0.09438 -0.354537,-0.326476 -0.501918,-0.506919 -0.360997,-0.441979 -0.628366,-1.004013 -0.753529,-1.583985 -0.01317,-0.06101 -0.04143,-0.21117 -0.04143,-0.220117 0,-0.0034 0.139602,-0.0045 0.556023,-0.0045 h 0.556023 l 0.02049,0.08301 c 0.100372,0.406547 0.320951,0.809013 0.601835,1.098102 0.09126,0.09393 0.153922,0.1342 0.167967,0.107957 0.0023,-0.0043 0.01482,-0.03901 0.02782,-0.07715 0.116252,-0.340922 0.307172,-0.77289 0.501544,-1.134769 l 0.04144,-0.07715 h 0.591551 0.591552 v 0.08556 0.08556 l -0.04312,0.06917 c -0.389342,0.624625 -0.65483,1.24453 -0.826403,1.929624 -0.0097,0.03867 -0.02362,0.09229 -0.03097,0.119141 -0.02491,0.09104 -0.07434,0.370463 -0.09536,0.539062 -0.03058,0.245245 -0.0509,0.539081 -0.05099,0.737305 l -2.7e-5,0.05566 h -0.539062 -0.539063 l 8e-6,-0.104492 z"
     id="path4691"
     inkscape:connector-curvature="0" />
  <path
     style="opacity:1;fill:#000000;stroke:#000000;stroke-width:0.00278423;stroke-miterlimit:4;stroke-dasharray:none;stroke-opacity:1"
     d="m 12.565986,33.033761 c -0.7729,-1.349728 -1.104266,-2.847481 -0.967367,-4.372436 0.01097,-0.122188 0.01541,-0.236363 0.01104,-0.283873 l -0.0073,-0.07948 -0.167606,-0.129235 c -0.196692,-0.151661 -0.495176,-0.445731 -0.634451,-0.625067 -0.425721,-0.548177 -0.685177,-1.171095 -0.776996,-1.865457 -0.032499,-0.245766 -0.035477,-0.712838 -0.006,-0.94465 0.05969,-0.469812 0.181972,-0.875852 0.386942,-1.284891 0.0983,-0.196169 0.273607,-0.481763 0.318687,-0.519176 0.01266,-0.0105 0.205547,-0.01292 0.856593,-0.01073 l 0.840257,0.0028 -0.110521,0.06629 c -0.413723,0.248153 -0.750166,0.616417 -0.958919,1.049612 -0.10039,0.208325 -0.164129,0.39905 -0.217848,0.651864 -0.02955,0.139079 -0.03052,0.154485 -0.03069,0.486135 -1.83e-4,0.371639 0.0047,0.418041 0.07153,0.673962 0.08468,0.324507 0.214505,0.601226 0.406896,0.86731 0.09174,0.126876 0.291379,0.335831 0.329837,0.345224 0.02158,0.0053 0.02741,-0.0032 0.05423,-0.07851 0.495256,-1.391263 1.377542,-2.651792 2.614921,-3.735958 0.05202,-0.04558 0.0999,-0.09709 0.106402,-0.114476 0.01054,-0.02817 0.0084,-0.03482 -0.01972,-0.06108 -0.01735,-0.01621 -0.07211,-0.0517 -0.121692,-0.07887 -0.04958,-0.02717 -0.09871,-0.05546 -0.109176,-0.06286 -0.01501,-0.01061 0.250725,-0.01353 1.256576,-0.01381 l 1.275605,-3.52e-4 -0.165227,0.100463 c -0.44153,0.268463 -1.011518,0.674369 -1.340586,0.954673 -0.278166,0.236946 -0.784293,0.729713 -1.044023,1.016466 -0.577278,0.637339 -1.119686,1.541212 -1.402431,2.337022 -0.185125,0.521053 -0.285364,0.970555 -0.341182,1.529968 -0.02259,0.22641 -0.01919,0.873654 0.0058,1.099331 0.12327,1.114347 0.52332,2.137198 1.221826,3.123975 l 0.0567,0.0801 -0.660438,-2.2e-5 -0.660438,-2.2e-5 -0.07116,-0.124272 z"
     id="path4693"
     inkscape:connector-curvature="0" />
  <path
     style="opacity:1;fill:#000000;stroke:#000000;stroke-width:0.00278423;stroke-miterlimit:4;stroke-dasharray:none;stroke-opacity:1"
     d="m 12.54594,33.00064 c -0.365271,-0.655508 -0.596998,-1.235547 -0.769125,-1.925208 -0.185676,-0.743946 -0.252401,-1.602482 -0.184189,-2.369913 0.0062,-0.06988 0.01134,-0.186988 0.01139,-0.260235 l 10e-5,-0.133178 -0.03591,-0.03337 c -0.01975,-0.01835 -0.09036,-0.07526 -0.156916,-0.126463 -0.229789,-0.176773 -0.54174,-0.499703 -0.703065,-0.727803 -0.382008,-0.540127 -0.609196,-1.123673 -0.690609,-1.773871 -0.024182,-0.19313 -0.027695,-0.725988 -0.0059,-0.894932 0.07991,-0.61943 0.258104,-1.125514 0.577736,-1.640822 0.0385,-0.06208 0.08741,-0.132361 0.108676,-0.156189 l 0.03867,-0.04332 0.844802,0.0031 0.844801,0.0031 -0.106775,0.06372 c -0.342049,0.204114 -0.668752,0.530982 -0.866433,0.866871 -0.15301,0.259986 -0.254292,0.530189 -0.320019,0.853752 -0.02751,0.135436 -0.02796,0.145374 -0.02317,0.513758 0.0043,0.332354 0.0076,0.387561 0.02841,0.478992 0.122407,0.537754 0.341978,0.95359 0.673209,1.274964 0.04854,0.04709 0.09557,0.08563 0.104505,0.08563 0.0109,0 0.03892,-0.06063 0.08507,-0.184086 0.298209,-0.797697 0.72196,-1.550699 1.264269,-2.246593 0.331735,-0.425685 0.754543,-0.88065 1.144966,-1.232046 0.222494,-0.200253 0.276214,-0.254823 0.276214,-0.280586 0,-0.02828 -0.04474,-0.06429 -0.168056,-0.135284 l -0.102634,-0.05908 0.638054,-0.0029 c 0.350929,-0.0016 0.923871,-0.0016 1.273204,0 l 0.635151,0.0029 -0.162302,0.09944 c -0.509826,0.312352 -1.085364,0.729476 -1.444682,1.047037 -0.206486,0.182492 -0.750127,0.717632 -0.921406,0.907 -0.328149,0.362805 -0.637144,0.792829 -0.90757,1.26305 -0.479889,0.834441 -0.759741,1.689825 -0.844876,2.58241 -0.01973,0.206845 -0.02293,0.832197 -0.0054,1.051757 0.03039,0.380257 0.127827,0.869469 0.252255,1.266535 0.198171,0.632391 0.506061,1.256289 0.906202,1.836299 0.05844,0.08472 0.110239,0.160537 0.115098,0.16849 0.0072,0.01185 -0.110644,0.01446 -0.653602,0.01446 h -0.662438 z"
     id="path4695"
     inkscape:connector-curvature="0" />
  <path
     style="opacity:1;fill:#000000;stroke:#000000;stroke-width:0.01113693;stroke-miterlimit:4;stroke-dasharray:none;stroke-opacity:1"
     d="m 19.995003,29.44714 c -0.395694,-0.0526 -0.783431,-0.255193 -1.103714,-0.576694 -1.062355,-1.066395 -0.767698,-2.91683 0.568916,-3.572764 0.296988,-0.145745 0.32732,-0.15136 0.817592,-0.15136 0.48164,0 0.525377,0.0077 0.809135,0.142087 1.115821,0.528526 1.556578,1.926519 0.971595,3.081704 -0.224059,0.442456 -0.763786,0.888185 -1.24947,1.031863 -0.230205,0.0681 -0.52039,0.0842 -0.814054,0.04516 z"
     id="path4697"
     inkscape:connector-curvature="0" />
  <path
     style="opacity:1;fill:#000000;stroke:#000000;stroke-width:0.01113693;stroke-miterlimit:4;stroke-dasharray:none;stroke-opacity:1"
     d="m 19.982327,29.453327 c -0.752373,-0.105111 -1.453884,-0.774122 -1.672329,-1.594851 -0.0809,-0.30394 -0.0809,-0.833533 0,-1.137473 0.160928,-0.604631 0.587568,-1.142528 1.13054,-1.425358 0.279954,-0.145826 0.296989,-0.148851 0.838189,-0.148851 0.540774,0 0.55843,0.0031 0.837026,0.148264 0.758803,0.395304 1.195906,1.12436 1.195906,1.994681 0,0.657196 -0.227622,1.202993 -0.674088,1.616341 -0.492652,0.456109 -1.031774,0.634351 -1.655244,0.547247 z"
     id="path4699"
     inkscape:connector-curvature="0" />
  <path
     style="opacity:1;fill:#000000;stroke:#000000;stroke-width:0.01113693;stroke-miterlimit:4;stroke-dasharray:none;stroke-opacity:1"
     d="m 19.921303,29.454746 c -0.484838,-0.08204 -1.015613,-0.459596 -1.330568,-0.946479 -0.432331,-0.668332 -0.467384,-1.557242 -0.09074,-2.301014 0.142432,-0.281263 0.624482,-0.758127 0.93904,-0.92894 0.235726,-0.128004 0.261091,-0.131991 0.83969,-0.131991 0.592098,0 0.598675,0.0011 0.867504,0.146947 0.514675,0.279199 0.955292,0.835574 1.103992,1.394033 0.07121,0.267432 0.07839,0.895076 0.01347,1.176962 -0.172942,0.750907 -0.892655,1.450887 -1.636915,1.592033 -0.256093,0.04857 -0.411301,0.04823 -0.705477,-0.0016 z"
     id="path4701"
     inkscape:connector-curvature="0" />
  <path
     style="opacity:1;fill:#000000;stroke:#000000;stroke-width:0.01113693;stroke-miterlimit:4;stroke-dasharray:none;stroke-opacity:1"
     d="m 29.095464,29.465229 c -0.655291,-0.05035 -1.319552,-0.543579 -1.6365,-1.215151 -0.511908,-1.084664 -0.06187,-2.419774 0.990936,-2.939751 0.325227,-0.160629 0.342591,-0.164005 0.843416,-0.164005 0.492387,0 0.522788,0.0056 0.819663,0.150978 0.730903,0.35792 1.214291,1.151076 1.214291,1.992439 0,1.275344 -1.019035,2.268665 -2.231806,2.17549 z"
     id="path4703"
     inkscape:connector-curvature="0" />
  <path
     style="opacity:1;fill:#000000;stroke:#000000;stroke-width:0.01113693;stroke-miterlimit:4;stroke-dasharray:none;stroke-opacity:1"
     d="m 28.896591,29.440783 c -1.049888,-0.237365 -1.806071,-1.368599 -1.634166,-2.44468 0.122967,-0.769749 0.535987,-1.357403 1.196156,-1.701921 0.277522,-0.144829 0.294655,-0.147848 0.835757,-0.147256 0.532467,5.82e-4 0.562008,0.0056 0.817592,0.138977 1.517108,0.791683 1.641868,2.952439 0.223406,3.869235 -0.429625,0.27768 -0.985677,0.388078 -1.438745,0.285645 z"
     id="path4705"
     inkscape:connector-curvature="0" />
  <path
     style="opacity:1;fill:#000000;stroke:#000000;stroke-width:0.01113693;stroke-miterlimit:4;stroke-dasharray:none;stroke-opacity:1"
     d="m 28.809274,29.428601 c -0.627884,-0.168728 -1.181917,-0.695654 -1.446845,-1.376055 -0.09791,-0.251464 -0.116355,-0.368741 -0.116481,-0.74071 -2.85e-4,-0.83982 0.343096,-1.470872 1.0502,-1.930011 0.351941,-0.228524 0.533287,-0.269453 1.107814,-0.250026 0.438784,0.01484 0.511062,0.02944 0.730065,0.147486 0.305762,0.164813 0.781624,0.636994 0.938264,0.931006 0.251504,0.472073 0.330775,1.203105 0.184473,1.701194 -0.232518,0.791611 -0.879285,1.397024 -1.648242,1.542854 -0.313033,0.05936 -0.505634,0.05316 -0.799248,-0.02574 z"
     id="path4707"
     inkscape:connector-curvature="0" />
  <path
     style="opacity:1;fill:#000000;stroke:#000000;stroke-width:0.01113693;stroke-miterlimit:4;stroke-dasharray:none;stroke-opacity:1"
     d="m 23.770066,38.951806 c -1.492935,-0.09159 -3.108112,-0.409613 -4.529902,-0.891924 -2.175951,-0.738144 -4.228819,-2.014762 -5.460836,-3.395932 -1.133535,-1.270765 -1.76994,-2.453772 -2.076927,-3.860774 -0.07822,-0.358501 -0.100653,-0.638027 -0.118821,-1.480505 l -0.0224,-1.038563 -0.239688,-0.191749 C 10.507271,27.44098 9.9814843,26.301101 9.9814843,25.187282 c 0,-1.018382 0.3731227,-1.935354 1.0761547,-2.644713 0.426883,-0.430725 0.840401,-0.688635 1.408434,-0.878436 0.372073,-0.124323 0.46139,-0.136976 0.962557,-0.136365 0.509247,6.24e-4 0.586512,0.01224 0.988493,0.148581 0.304209,0.103182 0.559483,0.230421 0.844218,0.420791 l 0.40815,0.272886 0.525802,-0.327525 c 1.081431,-0.67363 2.580971,-1.323276 3.847611,-1.666903 1.304737,-0.353961 3.261311,-0.643062 4.352107,-0.643062 0.139547,0 0.264564,-0.01754 0.277816,-0.03898 0.01325,-0.02144 0.461842,-1.56393 0.99687,-3.427754 0.535027,-1.863824 0.991905,-3.424512 1.015284,-3.468195 0.0693,-0.129496 0.252443,-0.224569 0.431239,-0.223868 0.09201,3.63e-4 1.360526,0.286737 2.818934,0.636392 1.699377,0.407427 2.669633,0.62105 2.701723,0.594844 0.02754,-0.02249 0.126978,-0.173588 0.220971,-0.335773 0.615543,-1.062114 1.783527,-1.629734 2.894218,-1.406539 0.88772,0.178388 1.608367,0.746935 2.02197,1.595211 0.218874,0.448897 0.287726,0.776253 0.287726,1.367986 0,0.623759 -0.0733,0.943377 -0.329396,1.436311 -0.519345,0.999635 -1.418233,1.568214 -2.471814,1.563513 -0.751411,-0.0034 -1.353263,-0.259969 -1.90035,-0.810267 -0.526466,-0.529557 -0.788312,-1.06749 -0.880972,-1.809862 -0.02551,-0.204383 -0.05506,-0.380286 -0.06567,-0.390896 -0.06267,-0.06267 -4.787664,-1.216113 -4.842607,-1.182156 -0.07967,0.04924 -0.413956,1.122229 -1.196054,3.839076 -0.313935,1.090543 -0.560887,1.99883 -0.548782,2.018415 0.0121,0.01959 0.146095,0.04694 0.297756,0.06078 0.151662,0.01384 0.504454,0.0464 0.783982,0.07234 2.474394,0.229665 5.012588,1.064348 6.954136,2.286863 0.239523,0.150818 0.452909,0.274214 0.474191,0.274214 0.02128,0 0.143507,-0.08038 0.271611,-0.178611 0.929383,-0.712694 2.262651,-0.865137 3.291836,-0.376379 0.816836,0.387914 1.347623,0.925731 1.732205,1.755148 0.272255,0.587164 0.333358,0.888334 0.330352,1.628269 -0.0023,0.566119 -0.01663,0.687179 -0.122915,1.038563 -0.218847,0.723501 -0.636752,1.371509 -1.169936,1.814118 l -0.281432,0.233623 -0.01014,1.053256 c -0.0086,0.891185 -0.02459,1.116298 -0.104051,1.462954 -0.29102,1.269579 -0.886709,2.461342 -1.739132,3.479389 -2.675095,3.194856 -7.558602,4.976663 -12.764513,4.65729 z m 3.204078,-1.206971 c 2.799868,-0.34164 5.165954,-1.218656 7.103483,-2.632984 0.583061,-0.425613 1.60375,-1.445697 1.989661,-1.988481 0.338073,-0.4755 0.817285,-1.406019 0.978669,-1.900349 0.257145,-0.787653 0.353933,-1.802157 0.250404,-2.624664 -0.207153,-1.645764 -1.124701,-3.226343 -2.620934,-4.514853 -1.878652,-1.617838 -4.600153,-2.733195 -7.546603,-3.092834 -0.793527,-0.09686 -2.758553,-0.134908 -3.557631,-0.06889 -1.534243,0.126754 -3.050214,0.458983 -4.419418,0.968529 -2.326316,0.865732 -4.306805,2.33271 -5.380233,3.985218 -0.483686,0.74462 -0.817662,1.535486 -0.992189,2.349542 -0.111557,0.520336 -0.111482,1.767144 1.37e-4,2.290846 0.281449,1.320528 0.984073,2.574629 2.030901,3.624918 2.006435,2.013071 5.228999,3.357763 8.782898,3.664873 0.677952,0.05859 2.700271,0.02217 3.380855,-0.06087 z M 38.301813,26.873603 c 0.20765,-0.225274 0.408241,-0.60148 0.521618,-0.978291 0.124972,-0.415346 0.106869,-1.096603 -0.04104,-1.544485 -0.271946,-0.823468 -0.947395,-1.45021 -1.740315,-1.614819 -0.547631,-0.113688 -1.331887,0.02407 -1.638508,0.287818 l -0.117808,0.101333 0.41322,0.391863 c 1.075985,1.020373 1.891863,2.24415 2.316348,3.474407 0.04013,0.116317 0.0893,0.09609 0.286487,-0.117826 z M 12.097399,26.601342 c 0.446141,-1.081518 1.165502,-2.113175 2.103371,-3.016504 0.255913,-0.246489 0.465297,-0.458124 0.465297,-0.470299 0,-0.01218 -0.07458,-0.06884 -0.165728,-0.125923 -0.584335,-0.365936 -1.5007,-0.376236 -2.123702,-0.02387 -0.380636,0.215284 -0.811564,0.674939 -0.995438,1.061794 -0.213335,0.448841 -0.264745,0.726094 -0.240925,1.2993 0.01601,0.385266 0.04419,0.546196 0.138807,0.792755 0.121277,0.316022 0.534334,0.921421 0.611195,0.895801 0.02342,-0.0078 0.116629,-0.193682 0.207123,-0.413054 z m 23.608122,-9.767425 c 1.082123,-0.31643 1.62023,-1.594598 1.118141,-2.655927 -0.162092,-0.342634 -0.50288,-0.693943 -0.828809,-0.854398 -0.884309,-0.435344 -1.963127,0.01043 -2.327954,0.96192 -0.117631,0.306788 -0.159228,0.836713 -0.09074,1.156041 0.2203,1.027223 1.196078,1.665272 2.129366,1.392364 z"
     id="path4709"
     inkscape:connector-curvature="0" />
  <path
     style="opacity:1;fill:#000000;stroke:#000000;stroke-width:0.01113693;stroke-miterlimit:4;stroke-dasharray:none;stroke-opacity:1"
     d="m 23.973963,35.50339 c -0.917424,-0.08086 -1.818191,-0.32752 -2.57281,-0.704514 -0.510016,-0.254795 -1.183473,-0.742326 -1.331475,-0.963886 -0.260021,-0.389255 0.01628,-0.932392 0.474214,-0.932193 0.164494,7.2e-5 0.204439,0.02195 0.712799,0.390373 0.955731,0.692649 2.15884,1.023443 3.722291,1.023443 1.678063,0 2.868922,-0.341262 3.892711,-1.115526 0.329355,-0.249083 0.423299,-0.298688 0.56567,-0.298688 0.249106,0 0.425026,0.108888 0.52239,0.323339 0.104749,0.230716 0.105024,0.315256 0.0018,0.542613 -0.168594,0.371227 -1.327629,1.098305 -2.210962,1.386965 -1.032115,0.337279 -2.43359,0.466448 -3.776598,0.348074 z"
     id="path4711"
     inkscape:connector-curvature="0" />
  <path
     style="opacity:1;fill:#000000;stroke:#000000;stroke-width:0.01113693;stroke-miterlimit:4;stroke-dasharray:none;stroke-opacity:1"
     d="M 23.902649,35.504436 C 23.442482,35.458047 22.7621,35.317197 22.289562,35.170503 21.495131,34.92388 20.328019,34.221729 20.069678,33.83499 c -0.186795,-0.279636 -0.103763,-0.674161 0.178049,-0.845991 0.227102,-0.138473 0.423049,-0.11295 0.721093,0.09393 0.77011,0.534544 1.209275,0.758894 1.851315,0.945756 1.37982,0.401589 3.402963,0.359636 4.683407,-0.09712 0.441574,-0.157516 0.860974,-0.385282 1.344096,-0.729947 0.45615,-0.325424 0.624793,-0.369368 0.890403,-0.232016 0.144993,0.07498 0.307598,0.354845 0.307598,0.52942 0,0.368561 -0.548239,0.847665 -1.537829,1.343902 -1.153391,0.578377 -2.916933,0.831702 -4.605161,0.661513 z"
     id="path4713"
     inkscape:connector-curvature="0" />
  <path
     style="opacity:1;fill:#000000;stroke:#000000;stroke-width:0.01113693;stroke-miterlimit:4;stroke-dasharray:none;stroke-opacity:1"
     d="m 23.836358,38.975 c -0.09723,-0.0096 -0.405482,-0.03852 -0.68501,-0.06427 -3.522334,-0.324505 -6.91264,-1.784724 -9.019649,-3.884801 -1.299355,-1.29508 -2.040845,-2.558905 -2.412679,-4.112265 -0.09756,-0.407582 -0.113888,-0.593918 -0.134172,-1.531538 l -0.02309,-1.0675 -0.310321,-0.277837 c -0.530453,-0.474927 -0.943711,-1.133171 -1.140046,-1.815884 -0.1170788,-0.407118 -0.1616724,-1.228093 -0.08979,-1.65305 0.125046,-0.739254 0.443454,-1.398563 0.932643,-1.931171 1.17342,-1.27757 2.902959,-1.49266 4.328735,-0.538334 0.198561,0.132904 0.371291,0.241644 0.383844,0.241644 0.01255,0 0.264845,-0.146604 0.560647,-0.325786 1.451073,-0.878988 3.097995,-1.530094 4.71019,-1.862162 1.172402,-0.241482 2.105698,-0.367876 3.063779,-0.41492 0.333862,-0.01639 0.624933,-0.04899 0.646827,-0.07244 0.02189,-0.02345 0.48023,-1.573962 1.018525,-3.445585 0.916988,-3.188316 0.987424,-3.410964 1.116745,-3.529986 0.128377,-0.118154 0.156857,-0.125435 0.407387,-0.104157 0.148148,0.01258 0.995249,0.195319 1.882447,0.406081 1.53045,0.363571 3.129259,0.731134 3.430609,0.78869 0.133584,0.02551 0.145484,0.01437 0.360586,-0.33763 0.682558,-1.116966 1.874928,-1.652311 3.02503,-1.358165 2.065104,0.528165 2.884906,3.090593 1.554853,4.859955 -0.549492,0.730986 -1.460636,1.156178 -2.33997,1.091964 -0.729601,-0.05328 -1.196134,-0.272868 -1.745527,-0.82159 -0.536941,-0.536283 -0.826637,-1.134629 -0.90539,-1.870012 -0.02293,-0.214071 -0.05351,-0.310351 -0.107809,-0.339413 -0.179182,-0.09589 -4.668116,-1.166673 -4.753535,-1.133895 -0.07103,0.02726 -0.360179,0.902086 -0.812632,2.458643 -0.687494,2.36516 -0.938015,3.280352 -0.91463,3.341292 0.01411,0.03677 0.08716,0.06166 0.180984,0.06166 0.644346,0 2.265755,0.241444 3.272492,0.487307 1.619499,0.39551 3.108492,1.002015 4.432417,1.805435 l 0.589515,0.357746 0.272271,-0.193082 c 0.644317,-0.456921 1.218829,-0.645445 1.966943,-0.645445 0.957548,0 1.727189,0.337638 2.403245,1.054293 0.369979,0.392198 0.643922,0.855738 0.833809,1.410894 0.14267,0.41711 0.146972,0.450618 0.148761,1.158735 0.0016,0.644377 -0.01019,0.767508 -0.101561,1.05848 -0.225099,0.716809 -0.620346,1.341055 -1.143474,1.805984 l -0.311465,0.276814 -0.02136,1.114157 c -0.02049,1.068313 -0.02693,1.135069 -0.156742,1.62239 -0.404287,1.517755 -1.130666,2.753691 -2.316713,3.941895 -2.118439,2.12229 -5.349421,3.527165 -9.028315,3.925636 -0.444263,0.04812 -2.719408,0.0938 -3.049398,0.06123 z m 3.64878,-1.313491 c 2.63988,-0.400817 4.989983,-1.334648 6.736851,-2.67694 0.387197,-0.297521 1.180447,-1.073543 1.552202,-1.518491 0.504677,-0.604038 1.024821,-1.542955 1.268484,-2.289752 0.269743,-0.826728 0.355103,-2.158983 0.188142,-2.936412 -0.420788,-1.959334 -1.667649,-3.644825 -3.693838,-4.993285 -0.6311,-0.420007 -1.999627,-1.100196 -2.761275,-1.372416 -1.243652,-0.444493 -2.581282,-0.754272 -3.823657,-0.885513 -0.961565,-0.101577 -3.12806,-0.104972 -3.911184,-0.0061 -3.26146,0.411644 -5.844216,1.492675 -7.866563,3.292604 -0.786083,0.69963 -1.361954,1.453103 -1.814227,2.37375 -0.54253,1.104372 -0.65806,1.642881 -0.625766,2.916815 0.01804,0.71176 0.04054,0.949955 0.115509,1.223169 0.619065,2.256006 2.266474,4.076792 4.865649,5.377716 1.418188,0.709825 2.741731,1.142778 4.331029,1.416754 1.160421,0.200043 1.486412,0.221329 3.137786,0.204887 1.403112,-0.01397 1.646238,-0.02737 2.300858,-0.126756 z M 38.347841,26.792555 c 0.223707,-0.299442 0.388046,-0.630301 0.47071,-0.947669 0.08548,-0.328186 0.08434,-0.984931 -0.0023,-1.31752 -0.297923,-1.143806 -1.333688,-1.919713 -2.420489,-1.813228 -0.377152,0.03695 -0.635201,0.113748 -0.896204,0.266706 l -0.203805,0.119437 0.570147,0.581079 c 0.665875,0.678641 0.827912,0.871392 1.223861,1.455838 0.365922,0.540125 0.713225,1.220068 0.924536,1.810037 0.04808,0.134247 0.154576,0.08486 0.333531,-0.15468 z M 12.192896,26.373031 c 0.506714,-1.077719 0.954362,-1.712282 1.868201,-2.648268 l 0.61125,-0.626064 -0.190966,-0.110411 c -0.560766,-0.324222 -1.46142,-0.340519 -2.054719,-0.03718 -0.261066,0.133477 -0.707416,0.55894 -0.90324,0.860972 -0.279193,0.430618 -0.369587,0.765313 -0.366321,1.356339 0.0033,0.592004 0.08002,0.909301 0.313021,1.294161 0.167352,0.27642 0.356753,0.5178 0.406295,0.5178 0.01701,0 0.159422,-0.273307 0.316479,-0.607349 z m 23.664147,-9.605252 c 0.284508,-0.106448 0.70897,-0.474949 0.876648,-0.76107 0.276612,-0.472002 0.326486,-1.188506 0.120008,-1.724068 -0.127347,-0.330312 -0.540188,-0.7797 -0.860062,-0.9362 -0.651986,-0.318987 -1.422699,-0.174791 -1.929411,0.360983 -0.92433,0.977342 -0.54486,2.645043 0.703303,3.090898 0.25785,0.09211 0.802514,0.07684 1.089514,-0.03054 z"
     id="path4715"
     inkscape:connector-curvature="0" />
  <path
     style="opacity:1;fill:#000000;stroke:#000000;stroke-width:0.01113693;stroke-miterlimit:4;stroke-dasharray:none;stroke-opacity:1"
     d="M 23.59329,38.97029 C 22.027756,38.848559 20.218853,38.453442 18.776125,37.91808 17.985359,37.624646 16.64264,36.9478 15.947698,36.49231 13.938311,35.175287 12.508822,33.448329 11.906803,31.610527 11.657687,30.850042 11.611615,30.543851 11.572532,29.388963 L 11.536642,28.328302 11.10157,27.886361 C 10.602285,27.379196 10.370482,27.006065 10.154368,26.361662 10.03025,25.99157 10.011069,25.868498 9.9925054,25.323099 c -0.017898,-0.52585 -0.00708,-0.677102 0.072059,-1.007687 0.260351,-1.087534 0.965003,-1.990668 1.92228,-2.46374 0.583243,-0.28823 0.956521,-0.36713 1.596465,-0.337448 0.674361,0.03128 1.108507,0.187078 1.838535,0.659786 l 0.247544,0.160289 0.481659,-0.289499 c 1.014255,-0.609613 2.397325,-1.234786 3.44267,-1.55615 1.31448,-0.404103 2.502694,-0.605994 4.640388,-0.788456 l 0.397748,-0.03395 0.0807,-0.243068 c 0.04438,-0.133687 0.369021,-1.237436 0.721417,-2.452776 1.166515,-4.023067 1.203856,-4.14308 1.330367,-4.275787 0.205109,-0.215153 0.09756,-0.232436 3.498401,0.562218 1.103829,0.257925 2.08857,0.48014 2.188314,0.493812 l 0.181352,0.02486 0.237283,-0.364304 c 0.130506,-0.200368 0.35133,-0.475884 0.490721,-0.612259 1.129021,-1.104593 2.859379,-1.05549 3.9287,0.111486 0.879432,0.959744 1.057941,2.436473 0.435893,3.605944 -0.890485,1.674142 -2.962324,2.048986 -4.300314,0.778026 -0.552142,-0.524481 -0.84478,-1.079839 -0.965172,-1.831666 -0.03321,-0.207379 -0.08141,-0.39808 -0.107107,-0.423781 -0.07995,-0.07995 -4.434692,-1.140041 -4.683166,-1.140041 -0.07062,0 -0.116309,0.04542 -0.166683,0.165728 -0.222287,0.530868 -1.61117,5.302409 -1.61117,5.535215 0,0.103099 0.05685,0.117826 0.596621,0.154542 0.58873,0.04005 1.596434,0.186991 2.298097,0.335109 1.835316,0.387429 3.401182,0.994277 4.958442,1.921634 0.303728,0.180872 0.568936,0.328859 0.589349,0.328859 0.02041,0 0.199549,-0.108724 0.39808,-0.241607 0.599853,-0.401505 1.104557,-0.553888 1.83452,-0.553888 1.177219,0 2.138435,0.525698 2.804778,1.533961 0.475058,0.718824 0.635122,1.315965 0.607601,2.266738 -0.01658,0.572693 -0.03285,0.681794 -0.153041,1.026291 -0.220995,0.633407 -0.465156,1.016957 -0.969302,1.522661 l -0.448343,0.449728 -0.02207,1.119165 c -0.01634,0.828869 -0.04083,1.193676 -0.09439,1.406426 -0.521506,2.071379 -1.701188,3.767352 -3.614127,5.195858 -2.168335,1.619226 -5.217455,2.683674 -8.277984,2.889846 -0.614407,0.04139 -2.348336,0.05073 -2.80633,0.01512 z m 3.49161,-1.271122 c 2.957599,-0.345976 5.86146,-1.547232 7.610333,-3.148206 0.914715,-0.837358 1.406459,-1.448225 1.862899,-2.31418 0.531531,-1.008415 0.682952,-1.593191 0.720247,-2.781528 0.02139,-0.681698 0.01293,-0.828191 -0.0714,-1.235522 -0.450402,-2.175618 -2.042278,-4.101494 -4.495532,-5.438765 -1.648532,-0.898616 -3.439793,-1.47257 -5.450043,-1.746294 -0.680445,-0.09265 -3.147057,-0.137487 -3.872821,-0.0704 -3.536382,0.326917 -6.720325,1.730693 -8.737707,3.852389 -0.785806,0.826438 -1.419029,1.912871 -1.737642,2.981305 -0.232425,0.779416 -0.228331,2.372013 0.0082,3.177606 0.611146,2.081748 2.274099,3.89434 4.705108,5.128492 1.503559,0.763313 2.910542,1.218312 4.640952,1.500822 0.928555,0.151598 0.794431,0.143856 2.629824,0.151794 1.19301,0.0052 1.784832,-0.0104 2.187611,-0.05752 z M 38.289799,26.836749 c 0.404434,-0.464565 0.635034,-1.222104 0.575088,-1.889205 -0.08049,-0.895675 -0.594396,-1.648482 -1.380051,-2.021588 -0.303041,-0.143913 -0.391468,-0.164988 -0.75987,-0.181101 -0.242199,-0.01059 -0.520656,0.0048 -0.664454,0.0368 -0.258595,0.0575 -0.639939,0.229485 -0.690608,0.311468 -0.01643,0.02658 0.252044,0.335137 0.606378,0.696898 0.904998,0.923967 1.509879,1.812348 1.912774,2.809266 0.09453,0.233906 0.186579,0.425284 0.204552,0.425284 0.01797,0 0.106259,-0.08452 0.196191,-0.187825 z M 12.11281,26.505293 c 0.554726,-1.168449 1.018912,-1.834453 1.925384,-2.762499 0.475733,-0.487057 0.583812,-0.620187 0.543202,-0.669118 -0.09009,-0.108557 -0.483989,-0.250017 -0.841106,-0.302067 -0.722255,-0.10527 -1.316694,0.09642 -1.846939,0.626669 -0.510705,0.510706 -0.718624,1.017406 -0.718624,1.751297 0,0.498314 0.05658,0.81284 0.198641,1.104268 0.108967,0.223535 0.449256,0.726537 0.491514,0.726537 0.01231,0 0.123876,-0.213789 0.247928,-0.475087 z m 23.836781,-9.800094 c 0.308765,-0.151065 0.683096,-0.521494 0.826168,-0.817556 0.247059,-0.511245 0.251016,-1.211774 0.0096,-1.705144 -0.153747,-0.314247 -0.550772,-0.709371 -0.850807,-0.846731 -0.89205,-0.408394 -1.995504,0.125273 -2.286731,1.10594 -0.138877,0.467653 -0.06064,1.147315 0.179169,1.55642 0.213046,0.363453 0.675085,0.725152 1.050365,0.822259 0.26042,0.06739 0.822446,0.007 1.072203,-0.115188 z"
     id="path4717"
     inkscape:connector-curvature="0" />
  <path
     style="opacity:1;fill:#000000;stroke:#000000;stroke-width:0.01113693;stroke-miterlimit:4;stroke-dasharray:none;stroke-opacity:1"
     d="m 22.952474,38.916227 c -4.525181,-0.558224 -8.19388,-2.532254 -10.149913,-5.4614 -0.504471,-0.755442 -1.000402,-1.932209 -1.139419,-2.703665 -0.05704,-0.316519 -0.132032,-1.449447 -0.133708,-2.01988 l -0.0012,-0.392516 -0.430893,-0.449439 c -0.463723,-0.483682 -0.689086,-0.825411 -0.89372,-1.355192 -0.166945,-0.432206 -0.2214354,-0.779484 -0.2218489,-1.413889 -4.209e-4,-0.645854 0.096674,-1.0519 0.3974339,-1.662052 0.394154,-0.79962 1.147843,-1.477541 1.983542,-1.784139 0.320447,-0.117564 0.461406,-0.143093 0.889059,-0.161014 0.798602,-0.03347 1.367047,0.131082 2.102305,0.608558 0.147535,0.09581 0.284396,0.174199 0.304135,0.174199 0.01974,0 0.334581,-0.171622 0.699649,-0.381381 2.284323,-1.31252 4.47092,-1.956106 7.412124,-2.181629 0.946611,-0.07258 0.853667,-0.02758 0.983591,-0.476214 0.431799,-1.491015 1.558971,-5.342635 1.690782,-5.777514 0.234977,-0.775248 0.267565,-0.828898 0.559737,-0.921488 0.09584,-0.03037 0.775779,0.108991 2.555327,0.523744 1.950718,0.454647 3.051428,0.69834 3.066962,0.679015 0.0071,-0.0089 0.09886,-0.145374 0.20386,-0.303368 0.407624,-0.613341 0.744579,-0.930594 1.259836,-1.18617 0.541736,-0.26871 1.248586,-0.348746 1.81297,-0.205282 0.907588,0.230705 1.711287,0.986455 2.03098,1.909811 0.161287,0.46584 0.20203,1.254077 0.09069,1.754531 -0.242395,1.089523 -1.093919,1.995098 -2.12167,2.256349 -0.3347,0.08508 -0.8929,0.08478 -1.255427,-6.85e-4 -0.506197,-0.119326 -0.826707,-0.311359 -1.28858,-0.772049 C 32.796719,16.65255 32.57768,16.2227 32.430887,15.39195 c -0.02885,-0.16325 -0.07816,-0.318158 -0.109585,-0.344238 -0.06727,-0.05583 -2.428114,-0.653075 -3.751305,-0.949003 -0.815786,-0.182448 -0.930792,-0.198842 -0.988694,-0.140941 -0.07964,0.07964 -0.448894,1.243862 -1.004571,3.167311 -0.581861,2.014083 -0.700964,2.476979 -0.650351,2.527592 0.02345,0.02345 0.258842,0.06101 0.523084,0.08346 1.550154,0.131707 3.216551,0.483753 4.524206,0.955792 1.034752,0.373526 1.768733,0.721952 2.839842,1.348098 l 0.519649,0.303774 0.310041,-0.200565 c 0.713269,-0.461411 1.159223,-0.601428 1.921031,-0.603149 0.510817,-0.0012 0.715935,0.03099 1.145517,0.179525 0.779058,0.269368 1.498001,0.940696 1.918594,1.791526 0.304843,0.616676 0.338217,0.782227 0.338547,1.679379 2.65e-4,0.723439 -0.0093,0.823517 -0.105326,1.104854 -0.233579,0.684161 -0.477603,1.071758 -1.035112,1.644135 l -0.396134,0.406697 -0.03531,1.162196 c -0.03165,1.041824 -0.0469,1.204352 -0.147268,1.56922 -0.714771,2.598457 -2.623712,4.734163 -5.534414,6.191854 -1.623452,0.81303 -3.3233,1.324011 -5.333605,1.6033 -0.983902,0.136693 -3.473395,0.161128 -4.427298,0.04346 z m 4.397321,-1.26178 c 2.587669,-0.376342 4.949975,-1.284021 6.66649,-2.561494 0.505222,-0.375999 1.342707,-1.168268 1.702107,-1.610209 0.679454,-0.835501 1.243028,-1.946798 1.424303,-2.80855 0.08663,-0.411809 0.163325,-1.569099 0.127646,-1.926047 -0.20291,-2.030046 -1.558609,-4.013723 -3.725212,-5.45078 -1.62379,-1.077022 -3.889667,-1.904558 -6.071582,-2.217444 -0.629318,-0.09024 -2.56738,-0.166121 -3.394121,-0.132884 -4.233042,0.17018 -8.260235,2.067512 -10.149455,4.781714 -0.328292,0.471651 -0.736206,1.285932 -0.918977,1.83447 -0.209299,0.628155 -0.260955,1.085634 -0.233532,2.068239 0.01901,0.681358 0.04129,0.888362 0.1332,1.238005 0.690265,2.625817 3.206766,4.884287 6.791725,6.095332 1.076906,0.363792 2.635111,0.690835 3.603641,0.756347 0.836831,0.0566 3.497734,0.01271 4.043767,-0.0667 z M 38.322837,26.770458 c 0.211288,-0.2899 0.365685,-0.6093 0.447896,-0.926564 0.08743,-0.337391 0.08941,-1.016736 0.0039,-1.338053 -0.248148,-0.932517 -1.070148,-1.667257 -1.951293,-1.744154 -0.191099,-0.01668 -0.471784,-0.0101 -0.623745,0.01462 -0.29346,0.04773 -0.806463,0.254458 -0.806463,0.324985 0,0.02317 0.237938,0.294728 0.52875,0.603472 0.290813,0.308744 0.632205,0.689793 0.758649,0.846777 0.485804,0.60314 0.978377,1.442015 1.276962,2.174726 0.05695,0.139764 0.128032,0.254116 0.157949,0.254116 0.02992,0 0.123244,-0.09446 0.207393,-0.209922 z M 12.213755,26.275213 c 0.546726,-1.079379 0.873791,-1.538194 1.819507,-2.552455 0.299429,-0.321131 0.544416,-0.601334 0.544416,-0.622673 0,-0.02134 -0.05469,-0.06413 -0.121534,-0.09509 -0.66409,-0.307594 -1.37434,-0.321506 -1.95421,-0.03828 -0.402809,0.196745 -0.866263,0.669131 -1.078118,1.098896 -0.312549,0.634031 -0.326046,1.587086 -0.03097,2.186481 0.120356,0.244477 0.420766,0.684093 0.467473,0.684093 0.01025,0 0.169293,-0.297438 0.353431,-0.660973 z m 23.72364,-9.582067 c 0.3153,-0.142202 0.743517,-0.591484 0.873042,-0.915989 0.08992,-0.225279 0.105952,-0.341612 0.106581,-0.773398 6.63e-4,-0.455327 -0.01115,-0.533536 -0.113515,-0.751301 -0.33814,-0.719356 -1.074178,-1.141106 -1.771915,-1.015307 -1.015513,0.183093 -1.615927,1.136241 -1.389046,2.20509 0.119217,0.561637 0.444669,0.980566 0.980346,1.261922 0.199781,0.104932 0.254417,0.113187 0.659761,0.09968 0.335536,-0.01118 0.493178,-0.03783 0.654746,-0.1107 z"
     id="path4719"
     inkscape:connector-curvature="0" />
  <path
     style="opacity:1;fill:#000000;stroke:#000000;stroke-width:0.01113693;stroke-miterlimit:4;stroke-dasharray:none;stroke-opacity:1"
     d="m 23.120731,38.9541 c -0.595785,-0.05768 -1.693726,-0.255395 -2.440949,-0.439569 -4.69695,-1.157695 -8.08299,-3.989947 -8.971876,-7.504525 -0.10118,-0.400057 -0.179626,-1.307075 -0.179626,-2.076902 v -0.548675 l -0.352995,-0.372915 c -0.629237,-0.664746 -0.933162,-1.175233 -1.108991,-1.862717 -0.1212247,-0.473985 -0.1192104,-1.450452 0.004,-1.932146 0.262917,-1.027994 0.980543,-1.918816 1.922039,-2.385914 0.524488,-0.26021 0.821371,-0.330605 1.390353,-0.329667 0.761986,0.0013 1.25605,0.148498 1.933149,0.576125 0.151886,0.09593 0.306608,0.174409 0.343827,0.174409 0.03722,0 0.29127,-0.12679 0.564559,-0.281754 2.476733,-1.404396 4.413395,-1.982356 7.565032,-2.257641 0.480326,-0.04196 0.769149,-0.08614 0.806374,-0.123366 0.0319,-0.0319 0.474006,-1.479312 0.982461,-3.216473 0.98306,-3.358672 1.064325,-3.612752 1.192641,-3.728877 0.19685,-0.178146 0.147641,-0.186778 4.136711,0.72558 0.75351,0.172339 1.449568,0.323046 1.546796,0.334904 l 0.176776,0.02156 0.253503,-0.367211 c 0.469065,-0.679463 0.931962,-1.041751 1.60116,-1.253152 0.429148,-0.135569 1.091176,-0.152327 1.481997,-0.03751 0.990119,0.290871 1.766995,1.101728 2.03817,2.127321 0.118353,0.447615 0.126902,1.192578 0.01841,1.60427 -0.282407,1.071649 -1.062127,1.893994 -2.075011,2.188447 -0.35055,0.101908 -1.179413,0.07468 -1.533957,-0.05039 -0.373642,-0.131809 -0.726209,-0.359724 -1.05136,-0.679646 -0.514442,-0.506169 -0.760738,-0.96685 -0.927013,-1.733916 -0.04748,-0.219037 -0.105334,-0.417255 -0.128564,-0.440485 -0.1047,-0.1047 -4.313555,-1.140162 -4.634432,-1.140162 -0.03515,0 -0.101209,0.08452 -0.146794,0.187825 -0.211573,0.479459 -1.591526,5.203443 -1.591526,5.448259 0,0.07341 0.09781,0.09309 0.883883,0.177923 2.636109,0.284475 4.772891,0.970605 6.926491,2.224128 0.297239,0.17301 0.55871,0.314564 0.581048,0.314564 0.02234,0 0.221762,-0.111417 0.443166,-0.247594 0.490418,-0.301636 0.901193,-0.449741 1.409366,-0.508149 0.729388,-0.08383 1.46563,0.06666 2.088386,0.426877 0.391616,0.22652 0.985638,0.840586 1.229722,1.271213 0.43077,0.759992 0.510005,1.112938 0.481949,2.146812 -0.01567,0.577465 -0.03534,0.736099 -0.121139,0.976705 -0.224041,0.628313 -0.490361,1.040722 -1.070219,1.657281 l -0.332507,0.353554 -0.02606,0.950174 c -0.03221,1.174183 -0.07915,1.518188 -0.2965,2.172718 -0.662754,1.995832 -1.984371,3.637833 -4.004793,4.975625 -2.062771,1.365832 -4.785036,2.274592 -7.439275,2.483416 -0.673211,0.05297 -3.020079,0.05275 -3.568366,-3.09e-4 z m 4.40584,-1.344621 c 2.485114,-0.385381 4.841465,-1.31269 6.526359,-2.568356 0.190209,-0.141753 0.655827,-0.566603 1.034707,-0.944112 0.526346,-0.524442 0.764257,-0.800076 1.008402,-1.168293 0.403091,-0.607938 0.675218,-1.148566 0.867752,-1.723947 0.187788,-0.561196 0.235886,-0.87699 0.26983,-1.771614 0.0309,-0.81423 -0.02362,-1.20591 -0.271517,-1.95092 -0.545406,-1.639104 -1.840006,-3.164861 -3.668286,-4.323277 -0.462484,-0.293034 -1.635663,-0.875842 -2.209616,-1.097684 -1.152899,-0.445614 -2.343736,-0.767678 -3.455073,-0.93443 -0.97194,-0.145836 -3.2533,-0.20479 -4.301004,-0.111145 -3.306813,0.295567 -6.469884,1.647422 -8.420326,3.598737 -0.949869,0.950294 -1.571859,1.965505 -1.950459,3.183534 -0.122626,0.394512 -0.123625,0.407457 -0.122767,1.590991 8.54e-4,1.177074 0.0025,1.198598 0.122977,1.588521 0.258343,0.83626 0.607272,1.514602 1.149266,2.234251 1.704702,2.263468 4.988939,3.941626 8.69241,4.44159 0.668599,0.09026 4.06575,0.05875 4.727345,-0.04385 z m 10.8569,-10.972248 c 0.341335,-0.504807 0.38982,-0.687736 0.390191,-1.472144 l 3.1e-4,-0.688341 -0.186213,-0.372319 c -0.102417,-0.204775 -0.266816,-0.465357 -0.365331,-0.579071 -0.625419,-0.721907 -1.661968,-0.946042 -2.575194,-0.556839 -0.115457,0.04921 -0.209922,0.109597 -0.209922,0.1342 0,0.02461 0.154127,0.212677 0.342504,0.417938 0.763057,0.831447 1.00094,1.115054 1.289443,1.537279 0.316213,0.462781 0.676754,1.112247 0.846413,1.524699 0.180677,0.439239 0.205723,0.442163 0.467782,0.0546 z M 12.122473,26.410699 c 0.539765,-1.07626 0.945318,-1.658316 1.836487,-2.635755 0.303835,-0.333247 0.558502,-0.631499 0.565928,-0.662782 0.01866,-0.0786 -0.426717,-0.241511 -0.820662,-0.30019 -0.68335,-0.101787 -1.249457,0.09888 -1.782483,0.631843 -0.553573,0.553505 -0.732572,1.05335 -0.692662,1.934219 0.01483,0.327369 0.04903,0.545921 0.109832,0.701894 0.09454,0.242529 0.450634,0.812064 0.507731,0.812064 0.01895,0 0.143071,-0.216582 0.275829,-0.481293 z m 23.737876,-9.712867 c 0.270867,-0.09165 0.748468,-0.553876 0.905636,-0.876481 0.09785,-0.200842 0.107654,-0.275319 0.107654,-0.817592 0,-0.697393 -0.04253,-0.814925 -0.449168,-1.241241 -0.348621,-0.365493 -0.673376,-0.505375 -1.163919,-0.501336 -0.306011,0.0025 -0.422171,0.02434 -0.626594,0.117699 -0.637421,0.291109 -1.007542,0.888009 -1.007542,1.624878 0,0.728036 0.357694,1.33932 0.971223,1.659776 0.1672,0.08733 0.266246,0.104203 0.621894,0.105933 0.283226,0.0014 0.494995,-0.0223 0.640816,-0.07164 z"
     id="path4721"
     inkscape:connector-curvature="0" />
  <path
     style="opacity:1;fill:#000000;fill-opacity:1;stroke:#000000;stroke-width:0.01113693;stroke-miterlimit:4;stroke-dasharray:none;stroke-opacity:1"
     d="m 24.047338,35.53949 c -0.893939,-0.08677 -1.833487,-0.332707 -2.5146,-0.658225 -0.677449,-0.323767 -1.371456,-0.83448 -1.517346,-1.1166 -0.195678,-0.3784 0.100604,-0.877322 0.520992,-0.877322 0.115579,0 0.272953,0.07757 0.635599,0.313279 0.564218,0.366727 0.933754,0.559601 1.377641,0.719043 1.312198,0.471333 3.496615,0.474769 4.895517,0.0077 0.42091,-0.140534 0.768455,-0.325482 1.390382,-0.7399 0.442396,-0.294788 0.473897,-0.308263 0.675403,-0.288917 0.253209,0.02431 0.396411,0.142392 0.499253,0.41168 0.0605,0.158427 0.06331,0.215013 0.01752,0.353746 -0.178035,0.53945 -1.575247,1.363511 -2.810432,1.657561 -0.851812,0.202784 -2.300224,0.302372 -3.169929,0.217955 z"
     id="path4748"
     inkscape:connector-curvature="0" />
  <path
     style="opacity:1;fill:#000000;fill-opacity:1;stroke:#000000;stroke-width:0.01113693;stroke-miterlimit:4;stroke-dasharray:none;stroke-opacity:1"
     d="m 23.932358,35.545722 c -0.452116,-0.04721 -1.259656,-0.224525 -1.71965,-0.377583 -0.737513,-0.245398 -1.628996,-0.761923 -2.035442,-1.179336 -0.171152,-0.17577 -0.197376,-0.22903 -0.213859,-0.434346 -0.02301,-0.286661 0.0987,-0.499059 0.359084,-0.626648 0.22439,-0.109951 0.330738,-0.0753 0.937172,0.305381 1.22608,0.76965 2.108055,1.007682 3.730967,1.006932 0.90287,-4.16e-4 1.570902,-0.07993 2.207049,-0.262692 0.489581,-0.140655 0.82074,-0.296454 1.357167,-0.638501 0.671229,-0.428003 0.808381,-0.491831 0.986292,-0.459003 0.219748,0.04055 0.378538,0.169702 0.460504,0.374554 0.100178,0.250369 0.08998,0.350695 -0.05965,0.586629 -0.262747,0.414308 -1.311275,1.049291 -2.239798,1.356409 -0.946983,0.313223 -2.622685,0.468001 -3.769839,0.348204 z"
     id="path4750"
     inkscape:connector-curvature="0" />
  <path
     style="opacity:1;fill:#000000;fill-opacity:1;stroke:#000000;stroke-width:0.01113693;stroke-miterlimit:4;stroke-dasharray:none;stroke-opacity:1"
     d="m 23.819484,35.550475 c -0.354877,-0.04653 -1.23361,-0.245419 -1.578223,-0.357218 -0.821876,-0.266631 -1.873947,-0.907881 -2.188076,-1.333659 -0.07564,-0.102521 -0.100691,-0.196115 -0.100691,-0.37616 0,-0.218793 0.0147,-0.254385 0.168711,-0.408393 0.178651,-0.178651 0.341803,-0.244286 0.50525,-0.203261 0.05469,0.01373 0.338086,0.167737 0.629767,0.342242 1.347564,0.806214 2.017581,0.984272 3.712311,0.986552 1.676836,0.0023 2.47276,-0.19196 3.567088,-0.870417 0.839771,-0.520638 0.958358,-0.556569 1.232493,-0.373436 0.181993,0.12158 0.304685,0.351123 0.304777,0.570208 1.33e-4,0.362509 -0.550207,0.83895 -1.52463,1.319853 -0.855988,0.422452 -1.473325,0.58542 -2.667381,0.704152 -0.520131,0.05172 -1.665329,0.05146 -2.061396,-4.63e-4 z"
     id="path4752"
     inkscape:connector-curvature="0" />
  <path
     style="opacity:1;fill:#000000;fill-opacity:1;stroke:#000000;stroke-width:0.01113693;stroke-miterlimit:4;stroke-dasharray:none;stroke-opacity:1"
     d="m 23.074801,38.964331 c -1.445732,-0.138572 -3.49024,-0.665548 -4.938699,-1.272958 l -0.342505,-0.143629 v -0.702982 c 0,-0.386641 0.0072,-0.702983 0.01592,-0.702983 0.0088,0 0.182769,0.07677 0.386699,0.170594 1.198733,0.551527 2.536936,0.963451 3.979052,1.224827 0.563695,0.102167 0.784544,0.117528 1.982293,0.137874 0.741358,0.01259 1.805332,0.0013 2.364389,-0.02503 0.869784,-0.04101 1.125407,-0.07035 1.771404,-0.203356 2.182237,-0.449293 4.265782,-1.3178 5.653217,-2.356491 0.437943,-0.327863 1.213727,-1.059649 1.640975,-1.54791 0.699065,-0.798896 1.253999,-1.838222 1.476952,-2.766162 0.117007,-0.486987 0.186642,-1.626538 0.131745,-2.15595 -0.122741,-1.18368 -0.745246,-2.488794 -1.714638,-3.594826 -0.571192,-0.651705 -1.423131,-1.364684 -2.238678,-1.873529 -0.480701,-0.299925 -1.821597,-0.944377 -2.434832,-1.170212 -1.070071,-0.394074 -2.197193,-0.685474 -3.247582,-0.839613 -1.171965,-0.171978 -3.611307,-0.195599 -4.772971,-0.04622 -1.578932,0.203039 -3.202404,0.662263 -4.546214,1.285968 -0.228018,0.10583 -0.422037,0.192419 -0.431153,0.192419 -0.0091,0 -0.01658,-0.324111 -0.01658,-0.720246 v -0.720245 l 0.435899,-0.183488 c 1.596019,-0.671831 3.022517,-0.998907 5.441926,-1.247754 0.627925,-0.06459 0.874792,-0.106292 0.909713,-0.15369 0.04312,-0.05853 0.310176,-0.93786 1.538309,-5.065231 0.429243,-1.442551 0.533865,-1.74133 0.650644,-1.858109 0.165453,-0.165453 0.319339,-0.140055 3.493069,0.576505 1.085394,0.245059 2.061609,0.457646 2.169366,0.472416 l 0.195923,0.02685 0.244108,-0.347526 c 0.461073,-0.656407 0.908264,-1.015931 1.545362,-1.242408 0.277545,-0.09866 0.400391,-0.115685 0.854477,-0.118406 0.407348,-0.0024 0.586697,0.01592 0.773398,0.07916 0.439683,0.148944 0.80399,0.382441 1.17557,0.753462 0.645465,0.644495 0.940789,1.445683 0.889283,2.412547 -0.06953,1.305218 -0.972508,2.446903 -2.1851,2.762744 -0.317796,0.08278 -0.916981,0.08308 -1.30589,6.71e-4 -0.464379,-0.0984 -0.794611,-0.298944 -1.274741,-0.774112 -0.354381,-0.350707 -0.45517,-0.482802 -0.607459,-0.796124 -0.100421,-0.206608 -0.234182,-0.574525 -0.297247,-0.817593 -0.06307,-0.243068 -0.138706,-0.46706 -0.168091,-0.49776 -0.07187,-0.07508 -0.419495,-0.173254 -2.059954,-0.581733 -1.848266,-0.460224 -2.5104,-0.595804 -2.589427,-0.530218 -0.09654,0.08012 -0.736533,2.135019 -1.340742,4.304855 -0.334136,1.199949 -0.349954,1.286951 -0.240054,1.320343 0.04524,0.01375 0.48088,0.07454 0.968081,0.135102 2.693782,0.334837 4.47012,0.919282 6.818326,2.243344 0.250966,0.14151 0.476002,0.25729 0.50008,0.25729 0.02408,0 0.206546,-0.09611 0.405485,-0.213576 0.737142,-0.435258 1.23461,-0.56387 2.037494,-0.526759 1.25256,0.0579 2.278684,0.767445 2.89214,1.999869 0.282731,0.568003 0.329726,0.811771 0.328018,1.701476 -0.0014,0.720378 -0.0096,0.797636 -0.1204,1.126952 -0.200781,0.596951 -0.472834,1.013984 -1.167626,1.789864 l -0.217664,0.243068 -0.04896,1.082757 c -0.05059,1.118984 -0.09877,1.450952 -0.298167,2.054651 -0.788076,2.385962 -2.673971,4.397431 -5.407755,5.767835 -1.842591,0.923663 -3.962349,1.509453 -6.071834,1.677938 -0.668759,0.05341 -3.010627,0.05044 -3.584359,-0.0046 z m 15.230201,-12.24696 c 0.07614,-0.103303 0.200566,-0.317093 0.276491,-0.475087 l 0.138046,-0.287262 v -0.795495 -0.795495 l -0.198874,-0.347096 c -0.25311,-0.441754 -0.426616,-0.643693 -0.717612,-0.835213 -0.637564,-0.419613 -1.429778,-0.494221 -2.121864,-0.199829 -0.115457,0.04911 -0.209922,0.106902 -0.209922,0.128422 0,0.02152 0.164071,0.220993 0.364602,0.443272 1.085121,1.202802 1.439884,1.699342 1.944672,2.721842 0.170997,0.346372 0.327804,0.629767 0.34846,0.629767 0.02066,0 0.09986,-0.08452 0.176001,-0.187826 z M 35.957179,16.632534 c 0.22812,-0.121461 0.695672,-0.607991 0.795343,-0.827627 0.07257,-0.159904 0.08682,-0.289295 0.08682,-0.787943 0,-0.717874 -0.04629,-0.850802 -0.429903,-1.23441 -0.376014,-0.376015 -0.559907,-0.457848 -1.079888,-0.480555 -0.403103,-0.0176 -0.445751,-0.01085 -0.707107,0.112042 -0.355433,0.167122 -0.631286,0.444054 -0.804283,0.807428 -0.128304,0.269499 -0.136761,0.318689 -0.136761,0.795495 0,0.47607 0.0086,0.52642 0.136198,0.795622 0.163071,0.344091 0.485073,0.680395 0.79112,0.826256 0.200204,0.09542 0.268925,0.104232 0.707866,0.0908 0.367781,-0.01125 0.52374,-0.0349 0.640592,-0.09711 z"
     id="path4810"
     inkscape:connector-curvature="0" />
</svg>
